<svg viewBox="0 0 500 70" xmlns="http://www.w3.org/2000/svg" xmlns:xlink="http://www.w3.org/1999/xlink">
 <circle fill="none" cx="11" cy="25" r="10" stroke="#212121" stroke-width="2" />
 <circle fill="#1a7aab" cx="11" cy="25" r="9.3" stroke="none" />
 <circle fill="none" cx="11" cy="45" r="10" stroke="#212121" stroke-width="2" />
 <circle fill="#1a7aab" cx="11" cy="45" r="9.3" stroke="none" />
  <path fill="none" strokeLinecap="round" stroke-width="2" strokeLinejoin="round" stroke="#212121" 
  d="M8 16 L8 11 Q18 11 18 1 L90 1 M110 1 L290 1 M310 1 L490 1 Q490 10 499 10 L499 60 Q489 60 489 69 L310 69 
  M290 69 L110 69 M90 69 L18 69 Q18 59 8 59 L8 54 M310 1 Q310 11 300 11 M290 1 Q290 11 300 11 L300 59 
  Q290 59 290 69 M300 59 Q310 59 310 69 M90 1 Q90 11 100 11 L100 59 Q90 59 90 69 M110 69 Q110 59 100 59 M100 11 Q110 11 110 1" />
</svg>